<svg width="29" height="29" viewBox="0 0 29 29" fill="none" xmlns="http://www.w3.org/2000/svg">
<path d="M14.438 0C6.43147 0 0 6.43147 0 14.438C0 22.4445 6.43147 28.876 14.438 28.876C22.4445 28.876 28.876 22.4445 28.876 14.438C28.876 6.43147 22.4445 0 14.438 0ZM14.438 26.9072C7.61276 26.9072 2.10007 21.3945 2.10007 14.5692C2.10007 7.74401 7.61276 2.10007 14.438 2.10007C21.2632 2.10007 26.7759 7.61276 26.7759 14.438C26.7759 21.2632 21.2632 26.9072 14.438 26.9072Z" fill="white"/>
<path d="M20.4756 15.0942H19.4256C19.4256 13.5192 18.9006 12.2066 17.8505 11.1566C16.8005 10.1066 15.488 9.58156 13.9129 9.58156V8.40027C17.4568 8.40027 20.4756 11.4191 20.4756 15.0942Z" fill="white"/>
<path d="M17.9818 15.0943H16.9317C16.9317 14.3068 16.6692 13.5192 16.013 12.863C15.3567 12.2067 14.7004 11.9442 13.7816 11.9442V10.8941C16.013 10.7629 18.113 12.7317 17.9818 15.0943Z" fill="white"/>
<path d="M19.5569 19.2944C19.1631 19.6881 18.7693 19.9506 18.2443 20.2131C17.9818 20.3444 17.7193 20.4756 17.3255 20.3444C16.9318 20.3444 16.538 20.2131 16.013 19.9506C15.0942 19.5569 14.1754 18.9006 13.3879 18.2443C11.9441 17.1943 10.7628 15.8817 9.71278 14.4379C9.31902 13.7817 8.92526 13.2567 8.66275 12.4691C8.53149 12.2066 8.40024 11.8129 8.40024 11.4191C8.40024 11.0253 8.53149 10.6316 8.794 10.3691C9.05651 9.97529 9.31902 9.71279 9.58153 9.31902C9.71278 9.18777 9.97529 9.18777 10.2378 9.31902C11.0253 10.1065 11.6816 10.7628 12.3379 11.5503C12.4691 11.6816 12.4691 11.9441 12.3379 12.2066C12.2066 12.3379 11.9441 12.6004 11.6816 12.7316C11.5503 12.8629 11.5503 12.9941 11.6816 12.9941C12.9941 14.3067 14.4379 15.7505 15.7505 17.063C15.8817 17.1943 16.013 17.1943 16.013 17.063C16.2755 16.8005 16.4068 16.6693 16.6693 16.4068C16.9318 16.1443 17.1943 16.1443 17.3255 16.4068C17.9818 17.063 18.7693 17.8506 19.4256 18.5068C19.6881 18.9006 19.6881 19.1631 19.5569 19.2944Z" fill="white"/>
</svg>
